<svg width="800" height="800" viewBox="0 0 800 800" fill="none" xmlns="http://www.w3.org/2000/svg">
<g clip-path="url(#clip0_15_42)">
<path d="M233.333 400C233.333 444.203 250.893 486.595 282.149 517.851C313.405 549.107 355.797 566.667 400 566.667V233.333C355.797 233.333 313.405 250.893 282.149 282.149C250.893 313.405 233.333 355.797 233.333 400Z" fill="#F3F3F3"/>
<path d="M400 33.3333C327.48 33.3333 256.589 54.8379 196.291 95.1278C135.993 135.418 88.9964 192.683 61.2443 259.683C33.4921 326.682 26.2309 400.407 40.3788 471.533C54.5267 542.659 89.4483 607.993 140.728 659.272C192.007 710.552 257.341 745.473 328.467 759.621C399.593 773.769 473.318 766.508 540.317 738.756C607.317 711.004 664.582 664.007 704.872 603.709C745.162 543.411 766.667 472.52 766.667 400C766.887 351.787 757.554 304.008 739.205 259.422C720.857 214.836 693.857 174.328 659.765 140.235C625.672 106.143 585.164 79.1433 540.578 60.7947C495.992 42.4461 448.213 33.1126 400 33.3333ZM100 400C100.438 320.57 132.185 244.518 188.352 188.351C244.518 132.185 320.57 100.438 400 100V233.333C444.203 233.333 486.595 250.893 517.851 282.149C549.107 313.405 566.667 355.797 566.667 400C566.667 444.203 549.107 486.595 517.851 517.851C486.595 549.107 444.203 566.667 400 566.667V700C320.57 699.562 244.518 667.815 188.352 611.648C132.185 555.482 100.438 479.43 100 400Z" fill="#F3F3F3"/>
</g>
<defs>
<clipPath id="clip0_15_42">
<rect width="800" height="800" fill="white"/>
</clipPath>
</defs>
</svg>
